<?xml version="1.0" encoding="UTF-8" standalone="no"?>
<!DOCTYPE svg PUBLIC "-//W3C//DTD SVG 1.1//EN" "http://www.w3.org/Graphics/SVG/1.1/DTD/svg11.dtd">
<svg width="100%" height="100%" viewBox="0 0 320 320" version="1.1" xmlns="http://www.w3.org/2000/svg" xmlns:xlink="http://www.w3.org/1999/xlink" xml:space="preserve" xmlns:serif="http://www.serif.com/" style="fill-rule:evenodd;clip-rule:evenodd;stroke-linejoin:round;stroke-miterlimit:2;">
    <g transform="matrix(1,0,0,1,-200,-120)">
        <g transform="matrix(1,0,0,1.14286,-20,-177.143)">
            <path d="M346.188,289.585C346.188,273.257 361.339,260 380,260C398.661,260 413.812,273.257 413.812,289.585C423.143,275.444 443.839,270.592 460,278.756C476.161,286.921 481.707,305.03 472.376,319.171C488.537,311.007 509.233,315.859 518.564,330C527.895,344.141 522.349,362.25 506.188,370.415C524.849,370.415 540,383.671 540,400C540,416.329 524.849,429.585 506.188,429.585C522.349,437.75 527.895,455.859 518.564,470C509.233,484.141 488.537,488.993 472.376,480.829C481.707,494.97 476.161,513.079 460,521.244C443.839,529.408 423.143,524.556 413.812,510.415C413.812,526.743 398.661,540 380,540C361.339,540 346.188,526.743 346.188,510.415C336.857,524.556 316.161,529.408 300,521.244C283.839,513.079 278.293,494.97 287.624,480.829C271.463,488.993 250.767,484.141 241.436,470C232.105,455.859 237.651,437.75 253.812,429.585C235.151,429.585 220,416.329 220,400C220,383.671 235.151,370.415 253.812,370.415C237.651,362.25 232.105,344.141 241.436,330C250.767,315.859 271.463,311.007 287.624,319.171C278.293,305.03 283.839,286.921 300,278.756C316.161,270.592 336.857,275.444 346.188,289.585Z"/>
        </g>
    </g>
</svg>
