<?xml version="1.0" encoding="UTF-8" standalone="no"?>
<!DOCTYPE svg PUBLIC "-//W3C//DTD SVG 1.1//EN" "http://www.w3.org/Graphics/SVG/1.1/DTD/svg11.dtd">
<svg width="100%" height="100%" viewBox="0 0 300 300" version="1.1" xmlns="http://www.w3.org/2000/svg" xmlns:xlink="http://www.w3.org/1999/xlink" xml:space="preserve" xmlns:serif="http://www.serif.com/" style="fill-rule:evenodd;clip-rule:evenodd;stroke-linejoin:round;stroke-miterlimit:2;">
    <g transform="matrix(1,0,0,1,-140,-140)">
        <g transform="matrix(0.967742,0,0,1.07143,4.51613,-10)">
            <path d="M309.991,140.656C300.02,139.781 289.98,139.781 280.009,140.656L275.071,162.369C265.515,163.69 256.149,165.957 247.142,169.129L230.846,152.555C221.727,156.3 213.031,160.834 204.881,166.095L212.624,187.129C205.079,192.588 198.223,198.781 192.178,205.596L168.891,198.602C163.067,205.964 158.046,213.818 153.9,222.054L172.25,236.773C168.738,244.909 166.228,253.368 164.766,262L140.727,266.46C139.758,275.465 139.758,284.535 140.727,293.54L164.766,298C166.228,306.632 168.738,315.091 172.25,323.227L153.9,337.946C158.046,346.182 163.067,354.036 168.891,361.398L192.178,354.404C198.223,361.219 205.079,367.412 212.624,372.871L204.881,393.905C213.031,399.166 221.727,403.7 230.846,407.445L247.142,390.871C256.149,394.043 265.515,396.31 275.071,397.631L280.009,419.344C289.98,420.219 300.02,420.219 309.991,419.344L314.929,397.631C324.485,396.31 333.851,394.043 342.858,390.871L359.154,407.445C368.273,403.7 376.969,399.166 385.119,393.905L377.376,372.871C384.921,367.412 391.777,361.219 397.822,354.404L421.109,361.398C426.933,354.036 431.954,346.182 436.1,337.946L417.75,323.227C421.262,315.091 423.772,306.632 425.234,298L449.273,293.54C450.242,284.535 450.242,275.465 449.273,266.46L425.234,262C423.772,253.368 421.262,244.909 417.75,236.773L436.1,222.054C431.954,213.818 426.933,205.964 421.109,198.602L397.822,205.596C391.777,198.781 384.921,192.588 377.376,187.129L385.119,166.095C376.969,160.834 368.273,156.3 359.154,152.555L342.858,169.129C333.851,165.957 324.485,163.69 314.929,162.369L309.991,140.656ZM295,252C312.109,252 326,264.546 326,280C326,295.454 312.109,308 295,308C277.891,308 264,295.454 264,280C264,264.546 277.891,252 295,252Z"/>
        </g>
    </g>
</svg>
